<svg xmlns="http://www.w3.org/2000/svg" viewBox="0 0 408.77 408.77"><defs><style>.cls-1,.cls-10,.cls-11,.cls-12,.cls-4,.cls-6,.cls-7,.cls-8,.cls-9{fill:none;}.cls-1,.cls-10,.cls-11,.cls-12,.cls-8,.cls-9{stroke:#4c4cff;}.cls-1,.cls-4,.cls-6,.cls-7{stroke-linecap:round;stroke-linejoin:round;}.cls-2{fill:#4c4cff;}.cls-13,.cls-15,.cls-17,.cls-3{fill:#fff;}.cls-4{stroke:#e33cd5;}.cls-5{fill:#e33cd5;}.cls-6{stroke:#0cc;}.cls-7{stroke:#39ffaa;stroke-width:12px;}.cls-13,.cls-14,.cls-15,.cls-16,.cls-17,.cls-18{stroke:#fff;}.cls-13{stroke-width:0.5px;}.cls-14,.cls-16,.cls-18{fill:#3976ff;}.cls-14{stroke-width:0.5px;}.cls-15{stroke-width:0.5px;}.cls-16,.cls-17{stroke-width:0.5px;}.cls-18{stroke-width:0.5px;}</style></defs><g id="Слой_2" data-name="Слой 2"><g id="Слой_1-2" data-name="Слой 1"><circle cx="204.39" cy="204.39" r="204.39"/><path class="cls-1" d="M332.87,309c4.14-5.08.41-12.37-6.15-12.48C243,295.16,173,296.71,86.43,302c-6.55.4-10,7.85-5.59,12.74a165.72,165.72,0,0,0,252-5.7Z"/><path class="cls-1" d="M60.63,122c-3.23,5.64,1.53,12.19,8,11.42,95.8-11.5,166.4-14.93,266.54-8.83,6.51.4,10.9-6.48,7.28-11.92A165.74,165.74,0,0,0,60.63,122Z"/><path class="cls-1" d="M332.87,309c4.14-5.08.41-12.37-6.15-12.48C243,295.16,173,296.71,86.43,302c-6.55.4-10,7.85-5.59,12.74a165.72,165.72,0,0,0,252-5.7Z"/><path class="cls-1" d="M60.63,122c-3.23,5.64,1.53,12.19,8,11.42,95.8-11.5,166.4-14.93,266.54-8.83,6.51.4,10.9-6.48,7.28-11.92A165.74,165.74,0,0,0,60.63,122Z"/><path class="cls-1" d="M332.87,309c4.14-5.08.41-12.37-6.15-12.48C243,295.16,173,296.71,86.43,302c-6.55.4-10,7.85-5.59,12.74a165.72,165.72,0,0,0,252-5.7Z"/><path class="cls-1" d="M60.63,122c-3.23,5.64,1.53,12.19,8,11.42,95.8-11.5,166.4-14.93,266.54-8.83,6.51.4,10.9-6.48,7.28-11.92A165.74,165.74,0,0,0,60.63,122Z"/><path class="cls-2" d="M332.87,309c4.14-5.08.41-12.37-6.15-12.48C243,295.16,173,296.71,86.43,302c-6.55.4-10,7.85-5.59,12.74a165.72,165.72,0,0,0,252-5.7Z"/><path class="cls-3" d="M60.63,122c-3.23,5.64,1.53,12.19,8,11.42,95.8-11.5,166.4-14.93,266.54-8.83,6.51.4,10.9-6.48,7.28-11.92A165.74,165.74,0,0,0,60.63,122Z"/><path class="cls-4" d="M368.87,224.81c1.06-8.72-5.7-16.19-14.45-16.89-106.67-8.6-189.92-9.95-300-4.16-8.77.46-15.73,7.75-14.91,16.49A164.72,164.72,0,0,0,47,256.15,15.61,15.61,0,0,0,62.52,266.6c103.63-3.59,183.78-3.85,284.29-1.13a15.63,15.63,0,0,0,15.49-10.58A165.5,165.5,0,0,0,368.87,224.81Z"/><path class="cls-4" d="M368.87,224.81c1.06-8.72-5.7-16.19-14.45-16.89-106.67-8.6-189.92-9.95-300-4.16-8.77.46-15.73,7.75-14.91,16.49A164.72,164.72,0,0,0,47,256.15,15.61,15.61,0,0,0,62.52,266.6c103.63-3.59,183.78-3.85,284.29-1.13a15.63,15.63,0,0,0,15.49-10.58A165.5,165.5,0,0,0,368.87,224.81Z"/><path class="cls-4" d="M368.87,224.81c1.06-8.72-5.7-16.19-14.45-16.89-106.67-8.6-189.92-9.95-300-4.16-8.77.46-15.73,7.75-14.91,16.49A164.72,164.72,0,0,0,47,256.15,15.61,15.61,0,0,0,62.52,266.6c103.63-3.59,183.78-3.85,284.29-1.13a15.63,15.63,0,0,0,15.49-10.58A165.5,165.5,0,0,0,368.87,224.81Z"/><path class="cls-5" d="M368.87,224.81c1.06-8.72-5.7-16.19-14.45-16.89-106.67-8.6-189.92-9.95-300-4.16-8.77.46-15.73,7.75-14.91,16.49A164.72,164.72,0,0,0,47,256.15,15.61,15.61,0,0,0,62.52,266.6c103.63-3.59,183.78-3.85,284.29-1.13a15.63,15.63,0,0,0,15.49-10.58A165.5,165.5,0,0,0,368.87,224.81Z"/><path class="cls-6" d="M38.74,167.12q33.14-24.85,66.26,0t66.26,0q33.12-24.85,66.26,0t66.25,0q33.14-24.85,66.26,0"/><path class="cls-6" d="M38.74,167.12q33.14-24.85,66.26,0t66.26,0q33.12-24.85,66.26,0t66.25,0q33.14-24.85,66.26,0"/><path class="cls-6" d="M38.74,167.12q33.14-24.85,66.26,0t66.26,0q33.12-24.85,66.26,0t66.25,0q33.14-24.85,66.26,0"/><path class="cls-7" d="M38.74,167.12q33.14-24.85,66.26,0t66.26,0q33.12-24.85,66.26,0t66.25,0q33.14-24.85,66.26,0"/><ellipse class="cls-8" cx="148.35" cy="328.47" rx="6.21" ry="8.28" transform="translate(-211.44 307.2) rotate(-62.31)"/><ellipse class="cls-9" cx="276.51" cy="91.37" rx="8.28" ry="12.42" transform="translate(116.69 334.8) rotate(-75)"/><ellipse class="cls-10" cx="255.41" cy="328.48" rx="8.28" ry="6.21" transform="matrix(0.97, -0.26, 0.26, 0.97, -76.31, 77.3)"/><ellipse class="cls-11" cx="191.96" cy="96.72" rx="12.42" ry="8.28"/><ellipse class="cls-9" cx="226.81" cy="66.52" rx="8.28" ry="12.42" transform="translate(103.85 268.39) rotate(-75)"/><ellipse class="cls-11" cx="204.39" cy="343.11" rx="8.28" ry="6.21"/><ellipse class="cls-12" cx="136.41" cy="84.98" rx="12.42" ry="8.28" transform="translate(-23.87 73.12) rotate(-27.69)"/><ellipse class="cls-8" cx="148.35" cy="328.47" rx="6.21" ry="8.28" transform="translate(-211.44 307.2) rotate(-62.31)"/><ellipse class="cls-9" cx="276.51" cy="91.37" rx="8.28" ry="12.42" transform="translate(116.69 334.8) rotate(-75)"/><ellipse class="cls-10" cx="255.41" cy="328.48" rx="8.28" ry="6.21" transform="matrix(0.97, -0.26, 0.26, 0.97, -76.31, 77.3)"/><ellipse class="cls-11" cx="191.96" cy="96.72" rx="12.42" ry="8.28"/><ellipse class="cls-9" cx="226.81" cy="66.52" rx="8.28" ry="12.42" transform="translate(103.85 268.39) rotate(-75)"/><ellipse class="cls-11" cx="204.39" cy="343.11" rx="8.28" ry="6.21"/><ellipse class="cls-12" cx="136.41" cy="84.98" rx="12.42" ry="8.28" transform="translate(-23.87 73.12) rotate(-27.69)"/><ellipse class="cls-8" cx="148.35" cy="328.47" rx="6.21" ry="8.28" transform="translate(-211.44 307.2) rotate(-62.31)"/><ellipse class="cls-9" cx="276.51" cy="91.37" rx="8.28" ry="12.42" transform="translate(116.69 334.8) rotate(-75)"/><ellipse class="cls-10" cx="255.41" cy="328.48" rx="8.28" ry="6.21" transform="matrix(0.97, -0.26, 0.26, 0.97, -76.31, 77.3)"/><ellipse class="cls-11" cx="191.96" cy="96.72" rx="12.42" ry="8.28"/><ellipse class="cls-9" cx="226.81" cy="66.52" rx="8.28" ry="12.42" transform="translate(103.85 268.39) rotate(-75)"/><ellipse class="cls-11" cx="204.39" cy="343.11" rx="8.28" ry="6.21"/><ellipse class="cls-12" cx="136.41" cy="84.98" rx="12.42" ry="8.28" transform="translate(-23.87 73.12) rotate(-27.69)"/><ellipse class="cls-13" cx="148.35" cy="328.47" rx="6.21" ry="8.28" transform="translate(-211.44 307.2) rotate(-62.31)"/><ellipse class="cls-14" cx="276.51" cy="91.37" rx="8.28" ry="12.42" transform="translate(116.69 334.8) rotate(-75)"/><ellipse class="cls-15" cx="255.41" cy="328.48" rx="8.28" ry="6.21" transform="matrix(0.97, -0.26, 0.26, 0.97, -76.31, 77.3)"/><ellipse class="cls-16" cx="191.96" cy="96.72" rx="12.42" ry="8.28"/><ellipse class="cls-14" cx="226.81" cy="66.52" rx="8.28" ry="12.42" transform="translate(103.85 268.39) rotate(-75)"/><ellipse class="cls-17" cx="204.39" cy="343.11" rx="8.28" ry="6.21"/><ellipse class="cls-18" cx="136.41" cy="84.98" rx="12.42" ry="8.28" transform="translate(-23.87 73.12) rotate(-27.69)"/></g></g></svg>